<?xml version="1.0" encoding="utf-8"?>
<!-- Generator: Adobe Illustrator 24.1.1, SVG Export Plug-In . SVG Version: 6.00 Build 0)  -->
<svg version="1.1" xmlns="http://www.w3.org/2000/svg" xmlns:xlink="http://www.w3.org/1999/xlink" x="0px" y="0px"
	 viewBox="0 0 933.4 783.9" style="enable-background:new 0 0 933.4 783.9;" xml:space="preserve">
<style type="text/css">
	.st0{fill:#F2F2F2;}
	.st1{fill:#686867;stroke:#686867;stroke-miterlimit:10;}
	.st2{fill:#3F3D56;}
	.st3{fill:#FF9815;stroke:#FF9815;stroke-miterlimit:10;}
	.st4{fill:#FF6584;}
	.st5{fill:#FDC134;}
	.st6{opacity:0.1;enable-background:new    ;}
	.st7{fill:#2F2E41;}
	.st8{fill:#FFB49F;}
	.st9{fill:#EBA59F;}
	.st10{fill:#F2F2F2;stroke:#FF9815;stroke-width:4;stroke-miterlimit:10;}
	.st11{fill:#FF9815;}
	.st12{fill:#F2F2F2;stroke:#686867;stroke-width:4;stroke-miterlimit:10;}
	.st13{fill:#FF8A2A;}
	.st14{fill:#FF2C1F;}
	.st15{fill:#B2B2B2;}
	.st16{fill:#FFFFBD;stroke:#FFD700;stroke-width:4;stroke-miterlimit:10;}
	.st17{fill:#CCBF00;}
	.st18{fill:#FFD700;}
	.st19{fill:#1C8B00;}
	.st20{fill:#2DC900;}
</style>
<g id="bebdbc02-5f56-4bd5-9ad9-bce5f07a2c3e">
	<rect x="226.2" y="208.5" class="st0" width="314.8" height="161.3"/>
	<g id="XMLID_1357_">
		<g>
			<g>
				<path class="st1" d="M444.7,271.3c0-5.3-4.4-9.7-9.7-9.7h-11h0h-7.2c2.4,2.8,3.9,6.4,3.9,10.4l0.2,33.2c0,4.8-3.4,8.7-7.8,9.7
					v25.6c0,2.7,2.2,4.9,4.9,4.9s4.9-2.2,4.9-4.9v-39.5h2.1v39.5c0,2.7,2.2,4.9,4.9,4.9c2.7,0,4.9-2.2,4.9-4.9
					c0-65.4-0.1-27.8-0.1-69.3c0-0.5,0.4-0.9,0.9-0.9s0.9,0.4,0.9,0.9c0,0,0,0.1,0,0.1l0.2,30.2c0,2.3,1.9,4.1,4.1,4.1c0,0,0,0,0,0
					c2.3,0,4.1-1.9,4.1-4.1L444.7,271.3z"/>
				<path class="st1" d="M423.9,258.9c4.7,0,8.5-3.8,8.5-8.5c0-4.7-3.8-8.5-8.5-8.5c-4.7,0-8.5,3.8-8.5,8.5
					C415.4,255.1,419.2,258.9,423.9,258.9z"/>
				<path class="st1" d="M415.4,305.2l-0.2-33.2c0-5.9-4.8-10.6-10.7-10.6c-0.9,0-23.9,0-24.4,0c2.7,3,4.4,6.9,4.4,11.3l0.2,35.8
					c0,3.5-1.7,6.6-4.4,8.4v31.2c0,3,2.4,5.4,5.4,5.4s5.4-2.4,5.4-5.4v-43.4h2.3v43.4c0,3,2.4,5.4,5.4,5.4c3,0,5.4-2.4,5.4-5.4
					c0-71.8-0.1-30.7-0.1-76c0-0.5,0.4-0.9,0.9-0.9c0.5,0,0.9,0.4,0.9,0.9c0,0,0,0,0,0l0.2,33.2c0,2.5,2,4.5,4.5,4.5c0,0,0,0,0,0
					C413.4,309.8,415.4,307.7,415.4,305.2z"/>
				<path class="st1" d="M367.7,261.2c-2.7,0-23.4,0-26.2,0c-6.3,0-11.5,5.1-11.5,11.5l-0.2,35.8c0,2.6,2.1,4.8,4.7,4.9
					c0,0,0.1,0,0.1,0c0,0,0,0,0,0c2.7,0,4.9-2.2,4.9-4.8l0.2-35.8v0c0-0.5,0.4-0.9,0.9-0.9s0.9,0.4,0.9,0.9l0,81.9
					c0,3.2,2.6,5.8,5.8,5.8c3.2,0,5.8-2.6,5.8-5.8v-46.7h2.5v46.7c0,3.2,2.6,5.8,5.8,5.8c3.2,0,5.8-2.6,5.8-5.8
					c0-20.9-0.1-60-0.1-81.9c0-0.6,0.5-1,1-1c0.6,0,1,0.5,1,1l0.2,35.8c0,2.7,2.2,4.8,4.9,4.8c0,0,0,0,0,0c2.7,0,4.9-2.2,4.8-4.9
					l-0.2-35.8C379.2,266.4,374,261.2,367.7,261.2z"/>
				<path class="st1" d="M354.6,258c5.6,0,10.1-4.5,10.1-10.1c0-5.6-4.5-10.1-10.1-10.1c-5.5,0-10.1,4.5-10.1,10.1
					C344.5,253.5,349.1,258,354.6,258z"/>
				<path class="st1" d="M392.4,258.4c5.2,0,9.4-4.2,9.4-9.4c0-5.2-4.2-9.4-9.4-9.4c-5.2,0-9.4,4.2-9.4,9.4
					C383,254.2,387.2,258.4,392.4,258.4z"/>
			</g>
		</g>
	</g>
	<rect x="226.2" y="416.1" class="st0" width="314.8" height="161.3"/>
	<g>
		<path class="st1" d="M398.5,466c-3,3-7.8,3-10.8,0c-3-3-3-7.8,0-10.8c3-3,7.8-3,10.8,0C401.4,458.2,401.4,463.1,398.5,466z"/>
		<path class="st1" d="M408.9,477.6c-0.9,0-1.9-0.4-2.6-1.1c-1.4-1.4-1.4-3.7,0-5.1c2.9-2.9,4.5-6.7,4.5-10.7
			c0-4.1-1.6-7.9-4.5-10.7c-1.4-1.4-1.4-3.7,0-5.1c1.4-1.4,3.7-1.4,5.1,0c4.2,4.2,6.6,9.9,6.6,15.9c0,6-2.3,11.6-6.6,15.9
			C410.7,477.2,409.8,477.6,408.9,477.6z"/>
		<path class="st1" d="M417.1,488.2c-0.9,0-1.9-0.4-2.6-1.1c-1.4-1.4-1.4-3.7,0-5.1c5.7-5.7,8.9-13.3,8.9-21.4
			c0-8.1-3.2-15.7-8.9-21.4c-1.4-1.4-1.4-3.7,0-5.1c1.4-1.4,3.7-1.4,5.1,0c7.1,7.1,11,16.5,11,26.5c0,10-3.9,19.4-11,26.5
			C418.9,487.9,418,488.2,417.1,488.2z"/>
		<path class="st1" d="M377.2,477.6c-0.9,0-1.9-0.4-2.6-1.1c-4.2-4.2-6.6-9.9-6.6-15.9c0-6,2.3-11.6,6.6-15.9c1.4-1.4,3.7-1.4,5.1,0
			c1.4,1.4,1.4,3.7,0,5.1c-2.9,2.9-4.5,6.7-4.5,10.7c0,4.1,1.6,7.9,4.5,10.7c1.4,1.4,1.4,3.7,0,5.1
			C379.1,477.2,378.2,477.6,377.2,477.6z"/>
		<path class="st1" d="M369,488.2c-0.9,0-1.9-0.4-2.6-1.1c-7.1-7.1-11-16.5-11-26.5c0-10,3.9-19.4,11-26.5c1.4-1.4,3.7-1.4,5.1,0
			c1.4,1.4,1.4,3.7,0,5.1c-5.7,5.7-8.9,13.3-8.9,21.4c0,8.1,3.2,15.7,8.9,21.4c1.4,1.4,1.4,3.7,0,5.1
			C370.9,487.9,370,488.2,369,488.2z"/>
		<path class="st1" d="M440.8,494.5h-95.6c-4.7,0-8.5,3.8-8.5,8.5v41.7c0,4.7,3.8,8.5,8.5,8.5h95.6c4.7,0,8.5-3.8,8.5-8.5V503
			C449.3,498.3,445.5,494.5,440.8,494.5z M364.7,542.3h-13.4c-2,0-3.6-1.6-3.6-3.6V509c0-2,1.6-3.6,3.6-3.6c2,0,3.6,1.6,3.6,3.6v26
			h9.7c2,0,3.6,1.6,3.6,3.6S366.7,542.3,364.7,542.3z M379.5,538.7c0,2-1.6,3.6-3.6,3.6s-3.6-1.6-3.6-3.6V509c0-2,1.6-3.6,3.6-3.6
			s3.6,1.6,3.6,3.6V538.7z M410,510.1l-9,29.7c0,0,0,0,0,0c-1,3.3-5.9,3.2-6.9,0c0,0,0,0,0,0l-9-29.7c-0.6-1.9,0.5-3.9,2.4-4.5
			c1.9-0.6,3.9,0.5,4.5,2.4l5.5,18.2l5.5-18.2c0.6-1.9,2.6-3,4.5-2.4C409.5,506.1,410.6,508.1,410,510.1z M432.3,518.4
			c2,0,3.6,1.6,3.6,3.6c0,2-1.6,3.6-3.6,3.6h-10.3v9.4h12.2c2,0,3.6,1.6,3.6,3.6s-1.6,3.6-3.6,3.6h-15.9c-2,0-3.6-1.6-3.6-3.6V509
			c0-2,1.6-3.6,3.6-3.6h16.4c2,0,3.6,1.6,3.6,3.6s-1.6,3.6-3.6,3.6h-12.7v5.7H432.3z"/>
	</g>
	<path class="st2" d="M553.6,756.1c0,15.3-94.6,27.7-211.4,27.8H341c-57,0-108.8-2.9-147-7.7c-1.6-0.2-3.2-0.4-4.8-0.6
		c-6.5-0.9-12.6-1.8-18.1-2.7c-26.7-4.7-42.5-10.4-42.5-16.7c0-5.1,10.4-9.8,28.4-13.9c9.6-2.2,21.3-4.1,34.7-5.9
		c2.5-0.3,5-0.6,7.6-0.9c37.6-4.4,87.3-7.1,141.7-7.1c10.6,0,21,0.1,31.2,0.3C474.8,730.7,553.6,742.2,553.6,756.1z"/>
	<rect x="226.2" y="1" class="st0" width="314.8" height="161.3"/>
	<path class="st3" d="M542,163.3H225.2V0H542V163.3z M227.2,161.3H540V2H227.2V161.3z"/>
	<rect x="617.7" y="1" class="st0" width="314.8" height="161.3"/>
	<rect x="617.7" y="208.5" class="st0" width="314.8" height="161.3"/>
	<circle class="st4" cx="355.7" cy="255.6" r="34.8"/>
	
		<rect x="330.4" y="271" transform="matrix(1 -1.879997e-03 1.879997e-03 1 -0.6022 0.6241)" class="st2" width="2.5" height="99.3"/>
	<path class="st5" d="M356,283.6c0.2,34.7-24.2,63-24.2,63s-24.7-28-25-62.7c-0.2-34.7,24.2-63,24.2-63S355.8,248.9,356,283.6z"/>
	<path class="st6" d="M356,283.6c0.2,34.7-24.2,63-24.2,63s-24.7-28-25-62.7c-0.2-34.7,24.2-63,24.2-63S355.8,248.9,356,283.6z"/>
	
		<rect x="297.7" y="271" transform="matrix(1 -1.879997e-03 1.879997e-03 1 -0.6024 0.5626)" class="st2" width="2.5" height="99.3"/>
	<path class="st5" d="M323.4,283.7c0.2,34.7-24.2,63-24.2,63s-24.7-28-25-62.7c-0.2-34.7,24.2-63,24.2-63S323.1,248.9,323.4,283.7z"
		/>
	<circle class="st2" cx="776" cy="310.5" r="47"/>
	<polygon class="st5" points="779.3,293 779.3,312.6 750.7,312.6 745.4,319 746,312.6 743.5,312.6 743.5,293 	"/>
	<rect x="767.8" y="299.7" class="st6" width="12.9" height="12.9"/>
	<polygon class="st5" points="772.6,299.8 808.4,299.8 808.4,319.4 805.8,319.4 806.4,325.8 801.2,319.4 772.6,319.4 	"/>
	<ellipse class="st6" cx="747.1" cy="321.4" rx="7.9" ry="0.8"/>
	<ellipse class="st6" cx="804.7" cy="329.5" rx="9" ry="0.9"/>
	<path class="st1" d="M543,577.4H226.2V414.1H543L543,577.4z M228.2,575.4H541V416.1H228.2V575.4z"/>
	<path class="st1" d="M931.7,576.7H615V413.4h316.7L931.7,576.7z M617,574.7h312.8V415.4H617V574.7z"/>
	<path class="st1" d="M541.5,371.3H224.8V208h316.7L541.5,371.3z M226.8,369.3h312.8V209.9H226.8V369.3z"/>
	<path class="st3" d="M931.5,371.8H614.8V208.5h316.7V371.8z M616.7,369.8h312.8V210.5H616.7V369.8z"/>
	<path class="st7" d="M297.7,735c0,0-15.7-1.7-19.2,0c-3.5,1.7-8.7,14,0,20.9c8.7,7,31.4,17.4,38.4,17.4c7,0,14-3.5,14-3.5
		l-3.5-29.7L297.7,735z"/>
	<path class="st7" d="M367.5,743.7l1.7,24.4c0,0,22.7,3.5,24.4,0s19.2-12.2,20.9-14s3.5-20.9-7-22.7c-10.5-1.7-14,3.5-14,3.5
		L367.5,743.7z"/>
	<path class="st8" d="M408.1,236c0,0,38.1-24.5,37.3-41.4s-23.9-70-23.9-70s-18-37.4-25.1-22.1s9.4,31.6,9.4,31.6l10.7,52.1
		l-29,27.7L408.1,236z"/>
	<circle class="st9" cx="313.4" cy="169.7" r="31.4"/>
	<path class="st8" d="M297.7,188.9L303,222l38.4-7c0,0-1.7-33.2-1.7-36.6S297.7,188.9,297.7,188.9z"/>
	<path class="st7" d="M324.4,131.6l-0.3-2.5c-2.1,0-4.3,0.3-6.3,1c-0.2-1.5-0.1-3.1,0.4-4.5c-2.1,0.5-4,1.4-5.8,2.5l-1.3-4.6
		l-17.4,8.6c-6.3,3.1-12.9,6.5-16.4,12.5c-4,6.7-3.3,15.3-0.6,22.6c2.7,7.3,7.3,13.7,10.9,20.6c1.4,3,3,5.8,5,8.4
		c6.6,8.2,19.4,9.9,28.7,4.9c3.4-1.8,6.5-4.6,7.9-8.2c0.8-2.2,1-4.5,1.6-6.8c1.1-4.7,2.5-14.4,6.3-17.3c1.7-1.3,5,3,6.4,1.4
		c3.6-4.1,2.8-10.5,0.6-15.5c-2.1-5-4.6-9.9-7.4-14.5C335.3,138.4,324.4,131.3,324.4,131.6z"/>
	<circle class="st10" cx="615.5" cy="291.9" r="40.3"/>
	<polygon class="st11" points="611.5,311 592.9,286.5 596.8,283.5 611.7,303.2 653.5,255.3 657.2,258.6 	"/>
	<path class="st1" d="M774.1,438.4c-31,0-56.3,25.2-56.3,56.3s25.2,56.3,56.3,56.3c31,0,56.3-25.2,56.3-56.3
		S805.2,438.4,774.1,438.4z M774.1,543.8c-27.1,0-49.2-22.1-49.2-49.2c0-27.1,22.1-49.2,49.2-49.2s49.2,22.1,49.2,49.2
		C823.4,521.8,801.3,543.8,774.1,543.8L774.1,543.8z"/>
	<path class="st1" d="M777.7,459.5h-7v36.6l22.1,22.1l5-5l-20.1-20.1V459.5z"/>
	<circle class="st12" cx="226.1" cy="312.3" r="6.5"/>
	<path class="st3" d="M931.6,164.3H614.9V1.1h316.7V164.3z M616.9,162.4h312.8V3H616.9V162.4z"/>
	<path class="st7" d="M283.8,443.6l-15.7,1.7c0,0-7,31.4,0,73.3c7,41.9,15.7,83.8,15.7,83.8s7,136.1,10.5,137.8s34.9,12.2,36.6,1.7
		s1.7-249.5,1.7-249.5l24.4,115.2c0,0,3.5,144.8,10.5,144.8c7,0,29.7-1.7,29.7-14s5.2-172.7,5.2-172.7s-1.7-118.6-8.7-122.1
		C386.7,440.1,283.8,443.6,283.8,443.6z"/>
	<path class="st13" d="M296,222c0,0,43.6-10.5,48.9-7s31.4,7,31.4,7l29.7,45.4l-8.7,57.6c0,0-1.7,92.5,1.7,108.2
		c3.5,15.7,22.7,17.4-17.4,20.9s-47.1-1.7-75,5.2s-50.6-3.5-43.6-10.5c7-7,19.2-118.6,5.2-129.1c-14-10.5-19.2-64.6-19.2-64.6
		S296,230.8,296,222z"/>
	<path class="st8" d="M221,297.1c0,0-41.9,40.1-36.6,61.1s47.1,82,47.1,82s40.1,20.9,45.4,0s-27.9-15.7-27.9-15.7l-26.2-62.8
		l29.7-41.9L221,297.1z"/>
	<path class="st13" d="M269.8,258.7l-20.9-3.5c0,0-15.7,17.4-20.9,24.4S212.2,304,212.2,304l36.6,26.2l27.9-29.7L269.8,258.7z"/>
	<path class="st13" d="M371,227.3l5.2-5.2l10.5-10.5c0,0,34,14.8,32.3,20.1s-13.1,35.8-13.1,35.8l-15.7,5.2L371,227.3z"/>
	<path class="st2" d="M675.6,235.2l3.3-2.9c0,0-5.3-6.5-14.6-2.4c0,0-7.7,3.9-4.9,13.6c0,0,1.8,6.4,10.7,7c0,0,5.8-0.2,8.6-4
		l-3.1-2.8c0,0-4.2,5.3-10.4,0.3c0,0-3.4-2.9-0.4-8.5c0,0,2-3,6.3-2.6C671.1,232.9,673.3,232.6,675.6,235.2z"/>
	<polygon class="st2" points="682.1,229 686.9,229 686.9,237.3 696.5,237.3 696.5,228.9 701.4,228.9 701.4,250.1 696.5,250.1 
		696.5,241.3 686.9,241.3 686.9,250 681.9,250 	"/>
	<path class="st2" d="M717.9,228.9H713l-9.3,21.1l4.8,0.1l2.1-4.6h9.6l1.9,4.7l5.1-0.1L717.9,228.9z M712.1,241.7l3.2-7.9l3.4,7.9
		L712.1,241.7z"/>
	<polygon class="st2" points="726.1,232.9 726.1,228.9 744.5,228.9 744.5,233.1 737.8,233.1 737.8,250.3 732.7,250.3 732.7,233.1 	
		"/>
	<path class="st2" d="M771.9,230.2c0,0-4.6-2.6-9.5-1.1c0,0-11.1,3.1-7.2,14.9c0,0,3.5,7.2,11.9,6.3c0,0,7.1-0.4,9.6-7.4
		C776.7,242.9,779.2,234.9,771.9,230.2z M772,241.3c-1.5,4.1-5.6,4.3-5.6,4.3c-4.9,0.6-6.9-3.6-6.9-3.6c-2.3-6.9,4.2-8.7,4.2-8.7
		c2.9-0.9,5.5,0.6,5.5,0.6C773.5,236.7,772,241.3,772,241.3z"/>
	<path class="st2" d="M780.9,250v-21.1H797v4h-11.2v5.5h9.8v4.1h-9.8v7.6C785.8,250,780.9,249.8,780.9,250z"/>
	<path class="st2" d="M800.1,250.1V229h16.1v4H805v5.5h9.8v4.1H805v7.6C805,250.1,800.1,249.9,800.1,250.1z"/>
	<polygon class="st2" points="819.5,229 824.3,229 824.3,246.1 834.9,246.1 834.9,250.2 819.5,250.2 	"/>
	<polygon class="st2" points="837.6,229 842.6,229 842.6,250 837.7,250 	"/>
	<polygon class="st2" points="847.5,249.8 847.5,229 851.6,229 862.2,241.6 862.2,228.9 866.9,228.9 866.9,249.9 863.3,249.9 
		852.5,237.2 852.5,250 847.6,250 	"/>
	<path class="st2" d="M872,228.9V250h16.2v-3.9h-11.4v-4.9h9.6v-4h-9.8v-4.6h11.2v-3.8C887.9,228.9,871.7,228.9,872,228.9z"/>
	<path class="st14" d="M818.1,277.4l-9.9-9.9l-32.2,32.2l-32.2-32.2l-9.9,9.9l32.2,32.2l-32.2,32.2l9.9,9.9l32.2-32.2l32.2,32.2
		l9.9-9.9l-32.2-32.2L818.1,277.4z"/>
</g>
<g id="Camada_12">
</g>
<g id="Camada_6">
	<path class="st15" d="M273.9,53.7h26.7c0,0,3.3,6.5,7.4,7.4l-5.1,17.7l-12.5-5.6l7-9.1C297.3,64.2,285.7,66.5,273.9,53.7z"/>
	<path class="st15" d="M356.2,53.9h-26.7c0,0-3.3,6.5-7.4,7.4l5.1,17.7l12.5-5.6l-7-9.1C332.8,64.3,344.4,66.6,356.2,53.9z"/>
	<polygon class="st15" points="315,58.2 302.7,43.3 305.7,38.4 325,38.4 328.2,43.8 	"/>
	<polygon class="st15" points="312.7,63.7 315.5,65.8 317.8,63.3 325.5,100.7 315.2,108.6 305,100.9 	"/>
	<path class="st11" d="M363.5,61.1c0,0,12.1,5.1,13.5,31.4c0,0,10.5-1,16.3,8.7c0,0,17-14.7-16.1-61.1c0,0,12.1,23.5,10.2,43.8
		C387.5,83.9,383.6,66.9,363.5,61.1z"/>
	<path class="st11" d="M404.4,89.1l-4.6-19.9c0,0,9.2-20.6,18.4-28.5c0,0-12.6,25.6-10.2,36L404.4,89.1z"/>
	<path class="st11" d="M408.5,102c0,0-2.4-24.9,21.8-40.9c0,0-11.6,11.1-11.9,31.4L408.5,102z"/>
	<polygon class="st15" points="444.7,89.8 494.3,39.9 505.9,40.1 505.9,51.7 456,101.8 444.2,101.8 	"/>
	<polygon class="st15" points="444,79.7 453.8,70.5 453.6,49.8 475.1,50 484.7,39.9 444.4,39.9 	"/>
	<polygon class="st15" points="496.5,70.8 506.1,61.1 506.1,102 465.4,102 474.8,92.6 496.7,92.6 	"/>
</g>
<g id="Camada_10">
	<path class="st16" d="M812.6,132.5h-78.8c-8.5,0-15.4-6.9-15.4-15.4V38.3c0-8.5,6.9-15.4,15.4-15.4h78.8c8.5,0,15.4,6.9,15.4,15.4
		v78.8C828,125.6,821.1,132.5,812.6,132.5z"/>
</g>
<g id="Camada_9">
	<path class="st17" d="M769.1,58l-10.5,18.3l15.9-14.6l-6,9.9l-6.4,7.7l12.7-6.7l-11.6,12.9l-5,5.6l8-3.6l-7.8,8l4.1-0.7l-5.2,6.4
		l5.2-0.9l-8.4,9.2h5l-7.1,9.9l5.2,2.4l4.1-12.5l7.8-14.4l16.6-14.9l11.6-3.4l-10.7,10.8l13.1-6l-18.1,13.3L802,83.8l-28.4,20.6
		l21.9-11.8l7.3-4.3l-3.6,4.7l-29.1,17.2l31.4-12.5V93l2.6-3.7l3.9-3.9l-7.8-11.2l-10.5-7.7l-8.8-17.9l-11,2.2l-12,7.8l-2.4,1.1
		c0,0-9,17.2-8.4,16.3c0.6-0.9,9.9-12.7,9.9-12.7l-2.8,10.7l6.2-11.8l-1.3,7.5l6-14l7.3-2.4L769.1,58z"/>
</g>
<g id="f">
	<path class="st18" d="M759.8,62.9c0,0-1,1.4-0.8,2.2c0,0-2.8,0.7-3.1-1.8c0,0,0-2-1.1-3.1c0,0,2-5.3,3.8-5.2c0,0,1.7-7.3,9-10.7
		c0,0,3.6,0.3,3.9,1c0,0,3.9-1,4.5-0.1c0,0,2.5-3.6,3.6-3.1c0,0,7.7-0.1,9.7,2l1-1.3c0,0-1.4-3.5-3.1-3.5c0,0,1-0.1,2.4,0.4
		c0,0-0.1-2.5-1.8-2.7c-1.6-0.1,2.8-0.9,5.1,0.5c0.1,0,0.1,0.1,0.2,0.1c0,0-2.4-2-3.4-1.7c0,0,3.8-1,5.5,0.7c0,0,0.1-2.5-1.9-3.3
		c0,0,3.6-1.5,8.9,2.5c0,0,0.8-1.4-0.1-2.1c0,0,5.2,2.4,5.4,7.3c0,0,0.7-2.1,0.3-3.6c0,0,1.1,2.6,1,3.6c0,0,1.4-0.7,2.5-0.2
		c0,0,2.1-2.3,3.7-1.3c0.1,0,0.1,0.1,0.2,0.1c1.7,1.4,2.2,1.4,3.8,4.8c0,0,1.6,0.9,1.7,2.4c0,0,0.4,3.4-3.4,1.8c0,0-0.9-1.1-0.7-1.4
		l-1.1-0.2c0,0-0.8,8.3-5.4,8.3c-4.6,0-0.2,0-0.2,0s2.1,5-10.2,13.5c0,0,1.2,0.9,0.8,2.3c0,0,5.4,0.8,10.1,5c0,0,2.4,2.3,4.7,8.2
		c0,0-0.1,1.3-0.7,2.1c0,0,0.3,4.6-6,4.7c0,0-5,0.4-6.9,2.3c0,0,0.5,4.3-0.2,4.3c-0.4,0-1.8,0.7-2.3,0c0,0,0-1.5-0.7-2.4
		c0,0-0.6-2.4,0.5-4l-0.4-0.7c0,0-3.9,2.8-4.6,2.3c0,0,4.2-2.7,4.3-3.1c0,0,1.7-1.9,2.9-2.2c0,0-2.5,0.8-2.5,0.5
		c0,0,2.7-0.7,2.9-1.6c0,0,1.3-4,0-3.7c-0.3,0-3.1-0.5-6.3-2.9c0,0-1.7,0.7-2,0.4c0,0-2.2,2.5-3.5,3c0,0-10.4,11.1-18,14
		c0,0-0.5,4.5-5.5,5.8c0,0-4.7,9.2-5.6,9.2c0,0-0.6,7.1-1.4,8.2c0,0-0.8,1.5-1.6,1.4c0,0-1.4-0.3-1.6-2c0,0,1-6.4,1.5-7.7
		c0,0,0-3,0.4-4c0,0,0.7-2.1,1-1.6c0,0,0.5-5.6,2.1-5.8c0,0-0.2-6.1,0.7-7.9c0,0,2-1.6,3.2-1.3c1.2,0.4,0.8-3.5,3.4-3.5
		c0,0,0.9-4,0.3-5.7c0,0,11-7,12.4-11.7c0,0,0-1.4,1.3-2.3c0,0,0.7-2.9-2.1-5.3c0,0-0.7-0.9,0-4.2c0,0-6.6-1.4-10.2-3.6
		c0,0-2.1,0.3-2.9,1.6c0,0-6.6-0.7-6.4,3.1c0,0,1.8,0.1,1.1,2.4C761.7,62.3,760.2,63.4,759.8,62.9z"/>
	<path class="st18" d="M732.3,92.3c0,0-0.4,0.6-0.4,1c0,0-1.2,0.3-1.4-0.8c0,0,0-0.9-0.5-1.4c0,0,0.9-2.3,1.7-2.3c0,0,0.7-3.2,4-4.7
		c0,0,1.6,0.1,1.7,0.4c0,0,1.7-0.4,2-0.1c0,0,1.1-1.6,1.6-1.4c0,0,3.4-0.1,4.3,0.9l0.4-0.6c0,0-0.6-1.5-1.4-1.5c0,0,0.4-0.1,1,0.2
		c0,0-0.1-1.1-0.8-1.2c-0.7-0.1,1.3-0.4,2.3,0.2c0,0,0.1,0,0.1,0.1c0,0-1-0.9-1.5-0.8c0,0,1.7-0.4,2.4,0.3c0,0,0-1.1-0.8-1.4
		c0,0,1.6-0.7,3.9,1.1c0,0,0.4-0.6-0.1-0.9c0,0,2.3,1.1,2.4,3.2c0,0,0.3-0.9,0.1-1.6c0,0,0.5,1.1,0.4,1.6c0,0,0.6-0.3,1.1-0.1
		c0,0,0.9-1,1.6-0.6c0,0,0.1,0,0.1,0.1c0.7,0.6,1,0.6,1.7,2.1c0,0,0.7,0.4,0.7,1.1c0,0,0.2,1.5-1.5,0.8c0,0-0.4-0.5-0.3-0.6
		l-0.5-0.1c0,0-0.4,3.7-2.4,3.7c-2,0-0.1,0-0.1,0s0.9,2.2-4.5,5.9c0,0,0.5,0.4,0.4,1c0,0,2.4,0.3,4.4,2.2c0,0,1.1,1,2.1,3.6
		c0,0-0.1,0.6-0.3,0.9c0,0,0.1,2-2.7,2.1c0,0-2.2,0.2-3,1c0,0,0.2,1.9-0.1,1.9c-0.2,0-0.8,0.3-1,0c0,0,0-0.7-0.3-1
		c0,0-0.2-1.1,0.2-1.8l-0.2-0.3c0,0-1.7,1.2-2,1c0,0,1.8-1.2,1.9-1.4c0,0,0.8-0.8,1.3-1c0,0-1.1,0.4-1.1,0.2c0,0,1.2-0.3,1.3-0.7
		c0,0,0.6-1.7,0-1.6c-0.1,0-1.4-0.2-2.8-1.3c0,0-0.7,0.3-0.9,0.2c0,0-1,1.1-1.5,1.3c0,0-4.6,4.9-7.9,6.2c0,0-0.2,2-2.4,2.6
		c0,0-2.1,4.1-2.4,4c0,0-0.2,3.1-0.6,3.6c0,0-0.4,0.7-0.7,0.6c0,0-0.6-0.1-0.7-0.9c0,0,0.5-2.8,0.7-3.4c0,0,0-1.3,0.2-1.8
		c0,0,0.3-0.9,0.5-0.7c0,0,0.2-2.5,0.9-2.6c0,0-0.1-2.7,0.3-3.5c0,0,0.9-0.7,1.4-0.6s0.4-1.5,1.5-1.5c0,0,0.4-1.8,0.1-2.5
		c0,0,4.9-3.1,5.5-5.2c0,0,0-0.6,0.6-1c0,0,0.3-1.3-0.9-2.3c0,0-0.3-0.4,0-1.8c0,0-2.9-0.6-4.5-1.6c0,0-0.9,0.1-1.3,0.7
		c0,0-2.9-0.3-2.8,1.4c0,0,0.8,0.1,0.5,1.1C733.2,92,732.5,92.5,732.3,92.3z"/>
</g>
<g id="Camada_3">
	<path class="st19" d="M344.4,169.3c0.3-0.4,19.8-6.1,13.7-13.5l-2.8-2.7c0,0-0.2-1.9,1-1.5c0,0,5.4,3.5,4.8,6.9
		c0,0,0.2,3.3-5.4,6.8c0,0-5.5,3.8-10.3,5.9C340.6,173.2,344.4,169.3,344.4,169.3z"/>
</g>
<g id="Camada_2">
	<path class="st20" d="M275.4,148.4c0,0,24.9-26.9,58.6,10.2c0,0-6.9,15.9,7.7,19.9c0,0,10.7,0.9,12.5-9c0.1-0.3,0.1-0.6,0.2-0.8
		c0.5-2.2,3.5-14.2-10.7-15.3c0,0-25.1-32.4-56.2-20.2C287.5,133.2,278.2,136.8,275.4,148.4z"/>
</g>
<g id="Camada_4">
	<path class="st19" d="M343.3,157.2c0.3,0,1.6,0.1,1.6,0.1c5.4,0.8,6.2,4.3,6.2,4.3c2.3,4.6-0.2,8.6-0.2,8.6
		c-2.7,5.9-8.9,4.1-8.9,4.1c-9.8-4.6-3.7-14.2-3.7-14.2S339.8,157.7,343.3,157.2z"/>
</g>
<g id="Camada_5">
	<path class="st20" d="M345.4,159.8c0,0,1.7,0.8,1.3,2.9c0,0-4.6,0.9-3.9,2.3c0,0,1,0.6,2.8-0.4c0,0,0.9,0.5,0.5,1.2
		c0,0-1.4,1.1-2.1,0.8c0,0,0.3,2,1.5,1.4c0,0,2.1-0.5,2.3-1.3c0,0,2.6,1.3,1.2,3c0,0-5.2,2.5-6.1,1.3c0,0-3.6-3.8-3.6-6.7
		c0-2.9,0-2.9,0-2.9S341.1,160.1,345.4,159.8z"/>
</g>
<g id="Camada_7">
	<circle class="st10" cx="226.6" cy="80.8" r="40.3"/>
	<polygon class="st11" points="222.5,99.9 204,75.4 207.9,72.4 222.8,92.1 264.6,44.2 268.3,47.5 	"/>
	<circle class="st10" cx="617.2" cy="82.6" r="40.3"/>
	<polygon class="st11" points="613.1,101.8 594.6,77.2 598.5,74.3 613.4,94 655.2,46.1 658.9,49.3 	"/>
</g>
<g id="Camada_11">
	<path class="st7" d="M729.3,67V34.7h24.4v6.2h-17.1v8.4h14.9v5.9h-14.7v11.9C736.7,67.1,728.9,66.6,729.3,67z"/>
</g>
</svg>
