<?xml version="1.0" encoding="utf-8"?>
<!-- Generator: Adobe Illustrator 24.1.1, SVG Export Plug-In . SVG Version: 6.00 Build 0)  -->
<svg version="1.1" xmlns="http://www.w3.org/2000/svg" xmlns:xlink="http://www.w3.org/1999/xlink" x="0px" y="0px"
	 viewBox="0 0 713.4 781.3" style="enable-background:new 0 0 713.4 781.3;" xml:space="preserve">
<style type="text/css">
	.st0{fill:#FF9215;}
</style>
<g id="Camada_2">
	<path class="st0" d="M153.8,266.2c0,0,45.5-144,154.6-131.3c0,0-78.4,45.5-49.8,91.1c0,0-2.1-56.1,33.9-63.5c0,0-18,29.6-2.1,48.7
		c0,0-5.3-25.4,7.4-36c0,0-7.4,25.4,39.2,38.1c0,0,288,273.2,115.4,435.2c0,0,60.4-90-26.5-165.2c0,0,36,57.2,15.9,116.5
		c0,0,15.8-64.6-20.2-65.6l-18.9,4.2c0,0-111.2,34.9-132.4-65.6c0,0,43.4,57.2,93.2,1.1c0,0-55.1,22.2-63.5,0
		c0,0,42.4,2.1,33.9-39.2c0,0,0,19.1-22.2,18c0,0,32.8-16.9-16.9-43.4l-49.8-44.5L153.8,266.2z"/>
</g>
<g id="b3476446-c29b-489b-91f9-6dd64a8ef5f6">
	
		<image style="overflow:visible;" width="1620" height="1024" xlink:href="C:\Users\Daniel Fortes\Downloads\Daco_227988.png"  transform="matrix(0.4122 0 0 0.4122 24.5496 198.7647)">
	</image>
	
		<image style="overflow:visible;" width="1000" height="1000" xlink:href="C:\Users\Daniel Fortes\Desktop\Cypher+Concept.png"  transform="matrix(0.75 0 0 0.75 -157.7059 -13.5294)">
	</image>
</g>
</svg>
